<svg xmlns="http://www.w3.org/2000/svg" width="54.251" height="41.286" viewBox="0 0 54.251 41.286"><path d="M27.125,18.682a7.948,7.948,0,0,0-8.138,7.741,7.948,7.948,0,0,0,8.138,7.741,7.949,7.949,0,0,0,8.138-7.741,7.949,7.949,0,0,0-8.138-7.741Zm21.7-7.741h-6.51a2.4,2.4,0,0,1-2.14-1.471l-1.685-4.8A2.409,2.409,0,0,0,36.348,3.2H17.9a2.4,2.4,0,0,0-2.14,1.466l-1.687,4.8a2.4,2.4,0,0,1-2.14,1.471H5.426A5.313,5.313,0,0,0,0,16.1V39.325a5.313,5.313,0,0,0,5.425,5.161h43.4a5.313,5.313,0,0,0,5.425-5.161V16.1a5.313,5.313,0,0,0-5.425-5.161Zm-21.7,28.384c-7.492,0-13.563-5.775-13.563-12.9s6.071-12.9,13.563-12.9,13.563,5.775,13.563,12.9S34.615,39.325,27.125,39.325ZM47.469,19.2a1.81,1.81,0,1,1,1.9-1.809A1.855,1.855,0,0,1,47.469,19.2Z" transform="translate(-0.001 -3.2)" fill="#fff"/></svg>