<svg xmlns="http://www.w3.org/2000/svg" xmlns:xlink="http://www.w3.org/1999/xlink" width="30" height="38.574" viewBox="0 0 30 38.574"><defs><clipPath id="a"><path d="M27.855-9.427H2.141V16.287a4.288,4.288,0,0,0,4.288,4.286H23.569a4.285,4.285,0,0,0,4.286-4.286V-9.427M20.355-18H9.641L7.5-15.856H2.141A2.143,2.143,0,0,0,0-13.715v2.145H30v-2.145a2.144,2.144,0,0,0-2.145-2.141H22.5L20.355-18" transform="translate(0 18.001)" fill="rgba(177,0,0,0.58)" clip-rule="evenodd"/></clipPath></defs><g transform="translate(0 18.001)"><g transform="translate(0 -18.001)" clip-path="url(#a)"><path d="M-5-23H46.429V37H-5Z" transform="translate(-5.714 12.287)" fill="rgba(177,0,0,0.58)"/></g></g></svg>