<svg xmlns="http://www.w3.org/2000/svg" xmlns:xlink="http://www.w3.org/1999/xlink" width="89" height="89" viewBox="0 0 89 89"><defs><clipPath id="a"><path d="M36.106-6.888H2.775V26.444A5.558,5.558,0,0,0,8.333,32H30.551a5.554,5.554,0,0,0,5.555-5.555V-6.888M26.385-18H12.5l-2.775,2.78H2.775A2.777,2.777,0,0,0,0-12.446v2.78H38.887v-2.78a2.779,2.779,0,0,0-2.78-2.775H29.165L26.385-18" transform="translate(0 18.001)" fill="#d56565" clip-rule="evenodd"/></clipPath></defs><g transform="translate(-1363 -807)"><circle cx="44.5" cy="44.5" r="44.5" transform="translate(1363 807)" fill="#fff"/><g transform="translate(1388 845.001)"><g transform="translate(0 -18.001)" clip-path="url(#a)"><path d="M-5-23H61.663V54.775H-5Z" transform="translate(-8.888 9.113)" fill="#d56565"/></g></g></g></svg>