<svg xmlns="http://www.w3.org/2000/svg" xmlns:xlink="http://www.w3.org/1999/xlink" width="30" height="36.667" viewBox="0 0 30 36.667"><defs><clipPath id="a"><path d="M26.667,11.333H3.333V-15.333H6.667v5H23.333v-5h3.333ZM15-18.667A1.666,1.666,0,0,1,16.667-17,1.666,1.666,0,0,1,15-15.333,1.666,1.666,0,0,1,13.333-17,1.666,1.666,0,0,1,15-18.667Zm11.667,0H19.693A4.984,4.984,0,0,0,15-22a4.986,4.986,0,0,0-4.693,3.333H3.333A3.335,3.335,0,0,0,0-15.333V11.333a3.333,3.333,0,0,0,3.333,3.333H26.667A3.332,3.332,0,0,0,30,11.333V-15.333a3.333,3.333,0,0,0-3.333-3.333Z" transform="translate(0 22)" fill="#156393" clip-rule="evenodd"/></clipPath></defs><g transform="translate(0 22)"><g transform="translate(0 -22)" clip-path="url(#a)"><path d="M-5-27H41.667V26.333H-5Z" transform="translate(-3.333 18.667)" fill="#156393"/></g></g></svg>